<?xml version="1.0" encoding="UTF-8" standalone="no"?>
<!-- Created with Inkscape (http://www.inkscape.org/) -->

<svg
   version="1.1"
   id="svg1"
   width="512"
   height="512"
   viewBox="0 0 512 512"
   sodipodi:docname="mas.png"
   inkscape:export-filename="mas.svg"
   inkscape:export-xdpi="96"
   inkscape:export-ydpi="96"
   xmlns:inkscape="http://www.inkscape.org/namespaces/inkscape"
   xmlns:sodipodi="http://sodipodi.sourceforge.net/DTD/sodipodi-0.dtd"
   xmlns="http://www.w3.org/2000/svg"
   xmlns:svg="http://www.w3.org/2000/svg">
  <defs
     id="defs1" />
  <sodipodi:namedview
     id="namedview1"
     pagecolor="#ffffff"
     bordercolor="#000000"
     borderopacity="0.25"
     inkscape:showpageshadow="2"
     inkscape:pageopacity="0.0"
     inkscape:pagecheckerboard="0"
     inkscape:deskcolor="#d1d1d1" />
  <g
     inkscape:groupmode="layer"
     inkscape:label="Image"
     id="g1">
    <path
       style="fill:#000000"
       d="m 238,511.39605 c -21.54093,-1.91036 -49.78137,-7.71438 -65.98819,-13.56199 -7.14162,-2.57678 -9.6088,-5.60729 -8.42025,-10.34285 1.02962,-4.10231 4.83376,-6.07429 9.25775,-4.79901 2.00788,0.57879 9.06997,2.64764 15.69354,4.59744 C 227.93125,498.88448 272.24972,499.97935 312,490.3396 377.79134,474.3847 432.61657,432.75121 466.51915,373 c 13.73975,-24.21547 23.51923,-53.04465 28.15539,-83 1.31298,-8.48349 1.77984,-17.40187 1.77984,-34 0,-24.29242 -1.29831,-36.19105 -6.11039,-56 C 463.23941,88.424098 361.89971,11.202027 248,15.330977 229.71341,15.993879 215.8021,17.828265 200,21.660396 154.34048,32.73318 114.11859,56.007013 81.377425,90.299679 16.335422,158.42382 -2.6929014,258.30921 32.610374,346.29259 51.163995,392.53221 86.61539,434.71009 128.5,460.37613 144.54182,470.20623 145,470.59332 145,474.31618 145,478.31294 141.56661,482 137.84481,482 134.53662,482 116.36094,471.07094 102.5,460.74711 89.545598,451.09849 67.800842,430.20968 57.480771,417.5 15.871357,366.25593 -4.7744794,299.14194 1.0318738,234 5.3676669,185.35639 22.358405,141.08972 51.873631,101.53987 61.510997,88.625984 88.625984,61.510997 101.53987,51.873631 c 72.60104,-54.18064 164.88127,-66.649146 249.30844,-33.685479 30.77728,12.016654 59.78682,31.161687 84.99507,56.09306 40.82668,40.378248 65.28775,89.170918 73.80469,147.218788 2.44197,16.64338 2.44197,52.35662 0,69 -8.51694,58.04787 -32.97801,106.84054 -73.80469,147.21879 -39.71547,39.27924 -87.15967,63.0877 -142.27548,71.39673 -12.5558,1.89286 -44.94886,3.22229 -55.5679,2.28053 z M 228,479.42829 C 152.22954,469.70951 87.017609,423.05073 53.547389,354.6084 15.6977,277.21061 25.971824,183.64559 79.796191,115.56419 86.979503,106.47816 106.47816,86.979503 115.56419,79.796191 175.15639,32.683285 254.37958,18.56249 326.66885,42.168756 c 17.3012,5.649756 21.36791,9.700914 16.25857,16.196385 -2.82209,3.587707 -5.42427,3.403058 -19.806,-1.405414 C 247.13142,31.552777 164.03536,51.05035 107.54286,107.54286 44.036157,171.04956 27.852066,268.36144 67.468902,348.5 103.19239,420.76294 175.93523,466.04539 256.21059,465.9918 c 90.46935,-0.0604 170.70049,-58.21345 199.24269,-144.41489 7.03518,-21.24723 10.52339,-42.83513 10.53852,-65.22096 0.0482,-71.41658 -35.33653,-137.23225 -94.63137,-176.014284 -4.47676,-2.928045 -8.41426,-6.039561 -8.75,-6.91448 -2.05778,-5.362485 1.1634,-10.42369 6.63957,-10.43229 6.49048,-0.01019 33.77292,20.7394 50.22731,38.200254 C 459.422,143.58313 481,197.87821 481,256 481,371.22925 394.51433,467.48699 279.78941,479.94548 266.83545,481.35221 240.98699,481.09408 228,479.42829 Z M 211.92431,396.42024 209.5,393.84047 209.2207,348.44953 208.94141,303.05859 163.55047,302.7793 118.15953,302.5 115.57976,300.07569 113,297.65137 V 256 214.34863 l 2.57976,-2.42432 2.57977,-2.42431 45.42023,-0.27935 L 209,208.94129 v -6.54757 c 0,-5.95385 0.27432,-6.82188 3.02517,-9.57273 2.44852,-2.44853 3.54456,-2.89555 5.75,-2.34517 5.73798,1.43195 6.22483,2.70091 6.22483,16.22462 0,11.82198 -0.11262,12.50309 -2.45455,14.84501 L 219.09091,224 H 173.54545 128 v 32 32 h 45.54545 45.54546 l 2.45454,2.45455 L 224,292.90909 V 338.45455 384 h 32 32 v -45.54545 -45.54546 l 2.45455,-2.45454 L 292.90909,288 H 338.45455 384 V 256 224 H 338.45455 292.90909 L 290.45455,221.54545 288,219.09091 V 173.54545 128 h -32 -32 v 19 c 0,17.66667 -0.14035,19.14035 -2,21 -3.00543,3.00543 -8.33048,2.66662 -10.97743,-0.69844 -2.04655,-2.60176 -2.11185,-3.53051 -1.82258,-25.9215 0.29726,-23.01039 0.32221,-23.24666 2.72432,-25.80156 L 214.34863,113 H 256 297.65137 l 2.42432,2.57976 2.42431,2.57977 0.2793,45.39094 0.27929,45.39094 45.39094,0.27929 45.39094,0.2793 2.57977,2.42431 L 399,214.34863 V 256 297.65137 l -2.57976,2.42432 -2.57977,2.42431 -45.39094,0.2793 -45.39094,0.27929 -0.27929,45.39094 -0.2793,45.39094 -2.42431,2.57977 L 297.65137,399 H 256 214.34863 Z"
       id="path2" />
  </g>
</svg>
